<?xml version="1.0" standalone="no"?>
<!DOCTYPE svg PUBLIC "-//W3C//DTD SVG 20010904//EN"
 "http://www.w3.org/TR/2001/REC-SVG-20010904/DTD/svg10.dtd">
<svg version="1.0" xmlns="http://www.w3.org/2000/svg"
 width="441.000000pt" height="165.000000pt" viewBox="0 0 441.000000 165.000000"
 preserveAspectRatio="xMidYMid meet">

<g transform="translate(0.000000,165.000000) scale(0.100000,-0.100000)"
fill="#000000" stroke="none">
<path d="M322 1208 c-9 -9 -12 -114 -12 -409 0 -348 2 -400 16 -413 8 -9 19
-16 24 -16 7 0 116 72 211 139 18 13 19 11 19 -52 0 -56 3 -68 20 -77 14 -8
26 -8 41 0 42 23 589 412 589 420 0 4 -129 99 -288 211 -239 170 -293 203
-322 204 l-35 0 -5 -67 -5 -68 -99 70 c-99 69 -131 81 -154 58z m305 -273 c98
-69 178 -130 178 -135 0 -8 -274 -207 -379 -275 l-26 -17 0 292 0 292 24 -16
c14 -8 105 -72 203 -141z m261 5 c106 -74 192 -137 192 -140 0 -4 -360 -262
-397 -283 -10 -6 -13 1 -13 31 0 38 1 39 150 143 82 57 149 106 149 109 0 3
-67 52 -149 109 -150 104 -150 104 -150 143 0 30 3 37 13 31 7 -4 100 -69 205
-143z"/>
<path d="M1357 1063 c-4 -3 -7 -62 -7 -130 l0 -123 25 0 c22 0 25 4 25 35 l0
35 49 0 c49 0 50 -1 53 -32 2 -28 7 -33 28 -33 25 0 25 0 28 108 4 146 3 147
-107 147 -48 0 -91 -3 -94 -7z m143 -88 l0 -45 -50 0 -50 0 0 45 0 45 50 0 50
0 0 -45z"/>
<path d="M2062 943 l3 -128 25 0 25 0 3 128 3 127 -31 0 -31 0 3 -127z"/>
<path d="M2150 940 l0 -130 25 0 25 0 0 130 0 130 -25 0 -25 0 0 -130z"/>
<path d="M3430 1044 c0 -32 29 -30 41 4 7 19 5 22 -16 22 -20 0 -25 -5 -25
-26z"/>
<path d="M1597 994 c-4 -4 -7 -61 -7 -126 l0 -118 25 0 25 0 0 100 0 100 50 0
50 0 0 -40 c0 -39 -1 -40 -35 -40 -19 0 -35 -3 -35 -7 0 -5 -3 -18 -6 -30 -6
-22 -3 -23 43 -23 76 0 84 11 81 105 l-3 80 -90 3 c-50 1 -94 0 -98 -4z"/>
<path d="M1837 994 c-4 -4 -7 -42 -7 -85 0 -67 3 -80 19 -89 25 -13 122 -13
156 0 25 10 26 11 23 92 l-3 83 -90 3 c-50 1 -94 0 -98 -4z m143 -84 l0 -40
-50 0 -50 0 0 40 0 40 50 0 50 0 0 -40z"/>
<path d="M2239 979 c-12 -23 -9 -143 4 -156 13 -12 140 -15 170 -4 28 11 28
11 25 93 l-3 83 -92 3 c-86 3 -93 1 -104 -19z m151 -69 l0 -40 -50 0 -50 0 0
40 0 40 50 0 50 0 0 -40z"/>
<path d="M2596 984 c-9 -25 -7 -137 4 -154 7 -11 29 -15 87 -15 77 0 78 0 78
25 0 23 -4 25 -57 28 l-58 3 0 39 0 40 50 0 c28 0 50 4 50 9 0 5 3 16 6 25 5
14 -5 16 -74 16 -64 0 -81 -3 -86 -16z"/>
<path d="M2807 994 c-4 -4 -7 -43 -7 -86 0 -75 1 -79 26 -88 36 -14 137 -12
158 3 14 10 16 26 14 92 l-3 80 -90 3 c-50 1 -94 0 -98 -4z m143 -84 l0 -40
-50 0 -50 0 0 40 0 40 50 0 50 0 0 -40z"/>
<path d="M3040 915 c0 -73 3 -86 19 -95 25 -13 122 -13 155 0 25 9 26 12 26
95 0 84 0 85 -25 85 -24 0 -25 -2 -25 -65 l0 -65 -50 0 -50 0 0 65 c0 63 -1
65 -25 65 -25 0 -25 -1 -25 -85z"/>
<path d="M3275 968 c-3 -18 -5 -60 -3 -93 3 -57 4 -60 28 -60 24 0 25 3 28 68
3 67 3 67 32 67 26 0 50 22 50 44 0 3 -29 6 -65 6 l-64 0 -6 -32z"/>
<path d="M3430 905 c0 -95 0 -95 25 -95 25 0 25 0 25 95 0 95 0 95 -25 95 -25
0 -25 0 -25 -95z"/>
<path d="M3516 985 c-9 -25 -7 -138 3 -154 6 -9 33 -16 72 -19 52 -4 65 -2 76
14 25 35 16 44 -42 44 l-55 0 0 40 0 40 51 0 c31 0 48 -4 44 -10 -3 -5 -24
-10 -46 -10 -36 0 -40 -2 -37 -22 3 -20 10 -23 50 -26 72 -5 90 9 86 66 l-3
47 -96 3 c-81 2 -98 0 -103 -13z"/>
<path d="M3755 977 c-3 -12 -5 -54 -3 -92 3 -67 4 -70 28 -70 24 0 25 3 28 67
3 67 3 67 34 70 21 2 33 10 39 26 8 21 7 22 -56 22 -59 0 -65 -2 -70 -23z"/>
<path d="M3909 979 c-14 -27 -3 -85 17 -93 9 -3 43 -7 77 -8 61 -2 61 -2 -18
-7 -74 -6 -80 -8 -83 -29 -3 -23 -3 -23 100 -20 l103 3 0 50 0 50 -72 3 c-40
2 -73 7 -73 12 0 5 30 10 66 12 59 3 68 6 75 26 8 22 8 22 -86 22 -86 0 -95
-2 -106 -21z"/>
<path d="M1410 590 c0 -58 1 -60 26 -60 45 0 64 17 64 58 0 47 -14 62 -57 62
l-33 0 0 -60z m70 30 c12 -22 4 -60 -14 -72 -27 -18 -36 -7 -36 42 0 43 3 50
20 50 10 0 24 -9 30 -20z"/>
<path d="M1530 590 l0 -60 38 1 c30 2 32 3 10 6 -36 6 -40 49 -5 56 l22 4 -22
2 c-35 2 -31 39 5 44 22 3 20 4 -10 6 l-38 1 0 -60z"/>
<path d="M1632 593 l-2 -63 38 2 c36 1 36 1 5 5 -31 4 -32 5 -36 61 l-3 57 -2
-62z"/>
<path d="M1720 590 c0 -33 4 -60 10 -60 6 0 10 27 10 60 0 33 -4 60 -10 60 -6
0 -10 -27 -10 -60z"/>
<path d="M1772 590 c11 -33 24 -60 29 -60 10 0 44 109 36 116 -3 3 -10 -12
-17 -33 -19 -57 -26 -59 -39 -9 -6 25 -15 46 -20 46 -6 0 -1 -27 11 -60z"/>
<path d="M1860 590 l0 -60 43 2 c36 1 38 2 10 5 -27 4 -33 9 -33 28 0 18 6 25
28 28 l27 4 -27 2 c-21 1 -28 6 -28 20 0 15 8 21 33 24 28 3 26 4 -10 5 l-43
2 0 -60z"/>
<path d="M1960 590 c0 -33 4 -60 10 -60 6 0 10 11 10 25 0 32 13 32 35 -1 19
-30 32 -26 16 5 -9 15 -8 25 0 39 19 31 4 52 -36 52 l-35 0 0 -60z m65 40 c8
-13 -13 -40 -31 -40 -8 0 -14 10 -14 25 0 18 5 25 19 25 11 0 23 -5 26 -10z"/>
<path d="M2070 610 c11 -21 20 -50 21 -62 1 -19 2 -17 8 7 4 17 15 45 25 63 9
18 12 32 6 32 -6 0 -15 -11 -20 -25 -5 -14 -12 -25 -15 -25 -3 0 -10 11 -15
25 -5 14 -14 25 -20 25 -6 0 -1 -18 10 -40z"/>
<path d="M2215 638 c-25 -69 -35 -102 -31 -105 2 -3 9 5 16 16 14 27 47 27 55
1 3 -11 10 -20 15 -20 5 0 0 27 -12 60 -19 58 -34 74 -43 48z m25 -45 c0 -7
-7 -13 -16 -13 -11 0 -14 5 -10 16 3 9 6 21 6 27 0 16 20 -14 20 -30z"/>
<path d="M2288 643 c20 -4 22 -10 22 -59 0 -30 5 -54 10 -54 6 0 10 24 10 54
0 49 2 55 23 59 12 2 -3 4 -33 4 -30 0 -45 -2 -32 -4z"/>
<path d="M2428 643 c20 -4 22 -10 22 -59 0 -30 5 -54 10 -54 6 0 10 24 10 54
0 44 4 55 18 59 9 3 -5 5 -33 4 -27 0 -40 -2 -27 -4z"/>
<path d="M2520 590 c0 -33 4 -60 10 -60 6 0 10 14 10 30 0 27 3 30 29 30 26 0
30 -4 34 -32 2 -18 4 -4 4 32 0 36 -2 53 -4 38 -4 -23 -9 -28 -34 -28 -24 0
-29 4 -29 25 0 14 -4 25 -10 25 -6 0 -10 -27 -10 -60z"/>
<path d="M2650 590 l0 -60 38 2 c36 1 36 1 5 5 -27 4 -33 9 -33 28 0 18 6 25
28 28 l27 4 -27 2 c-21 1 -28 6 -28 20 0 15 8 21 33 24 31 4 31 4 -5 5 l-38 2
0 -60z"/>
<path d="M2787 643 c-16 -16 -5 -41 23 -53 39 -16 37 -46 -3 -43 -15 1 -25 -2
-22 -8 9 -13 49 -11 63 3 20 20 14 37 -18 53 -38 20 -41 49 -5 43 14 -3 25 -1
25 3 0 10 -54 12 -63 2z"/>
<path d="M2880 590 c0 -33 4 -60 10 -60 6 0 10 11 10 25 0 20 5 25 25 25 29 0
47 27 34 52 -6 12 -21 18 -44 18 l-35 0 0 -60z m65 25 c0 -13 -8 -21 -22 -23
-19 -3 -23 1 -23 23 0 22 4 26 23 23 14 -2 22 -10 22 -23z"/>
<path d="M2990 590 l0 -60 38 1 c30 2 32 3 10 6 -36 6 -40 49 -5 56 l22 4 -22
2 c-35 2 -31 39 5 44 22 3 20 4 -10 6 l-38 1 0 -60z"/>
<path d="M3090 590 l0 -60 38 2 c36 1 36 1 5 5 -27 4 -33 9 -33 28 0 18 6 25
28 28 l27 4 -27 2 c-21 1 -28 6 -28 20 0 15 8 21 33 24 31 4 31 4 -5 5 l-38 2
0 -60z"/>
<path d="M3180 590 c0 -58 1 -60 26 -60 45 0 64 17 64 58 0 47 -14 62 -57 62
l-33 0 0 -60z m70 30 c12 -22 4 -60 -14 -72 -27 -18 -36 -7 -36 42 0 43 3 50
20 50 10 0 24 -9 30 -20z"/>
<path d="M3341 631 c-15 -28 -14 -53 5 -79 38 -54 111 5 82 66 -17 35 -71 44
-87 13z m67 -3 c16 -16 15 -50 -2 -74 -12 -15 -18 -17 -33 -8 -21 13 -27 36
-19 70 7 26 34 32 54 12z"/>
<path d="M3460 590 c0 -33 4 -60 10 -60 6 0 10 11 10 25 0 18 5 25 20 25 11 0
20 5 20 10 0 6 -9 10 -20 10 -33 0 -26 38 8 43 22 3 20 4 -10 6 l-38 1 0 -60z"/>
<path d="M3590 590 l0 -60 38 1 c30 2 32 3 10 6 -27 4 -28 7 -28 59 0 30 -4
54 -10 54 -6 0 -10 -27 -10 -60z"/>
<path d="M3680 590 c0 -33 4 -60 10 -60 6 0 10 27 10 60 0 33 -4 60 -10 60 -6
0 -10 -27 -10 -60z"/>
<path d="M3736 628 c-20 -28 -20 -48 0 -76 12 -17 24 -22 47 -20 27 2 33 8 35
31 3 23 0 27 -20 26 -13 0 -17 -3 -10 -6 6 -2 12 -14 12 -25 0 -31 -42 -19
-54 15 -13 36 3 62 38 62 14 -1 26 3 26 7 0 19 -59 7 -74 -14z"/>
<path d="M3840 590 c0 -33 4 -60 10 -60 6 0 10 14 10 30 0 27 3 30 29 30 26 0
30 -4 34 -32 2 -18 4 -4 4 32 0 36 -2 53 -4 38 -4 -23 -9 -28 -34 -28 -24 0
-29 4 -29 25 0 14 -4 25 -10 25 -6 0 -10 -27 -10 -60z"/>
<path d="M3968 643 c20 -4 22 -10 22 -59 0 -30 5 -54 10 -54 6 0 10 24 10 54
0 49 2 55 23 59 12 2 -3 4 -33 4 -30 0 -45 -2 -32 -4z"/>
</g>
</svg>
